<svg xmlns="http://www.w3.org/2000/svg" width="1024" height="1024" viewBox="0 0 1024 1024" fill="none">
  <defs>
    <linearGradient id="bg" x1="0" y1="0" x2="1024" y2="1024" gradientUnits="userSpaceOnUse">
      <stop stop-color="#ECEFF4"/>
      <stop offset="1" stop-color="#DDE4ED"/>
    </linearGradient>
    <linearGradient id="tile" x1="164" y1="154" x2="860" y2="860" gradientUnits="userSpaceOnUse">
      <stop stop-color="#FFFFFF"/>
      <stop offset="1" stop-color="#F4F8FD"/>
    </linearGradient>
    <linearGradient id="logoA" x1="320" y1="246" x2="706" y2="632" gradientUnits="userSpaceOnUse">
      <stop stop-color="#2E77FF"/>
      <stop offset="1" stop-color="#1B4FD0"/>
    </linearGradient>
    <linearGradient id="logoB" x1="320" y1="412" x2="706" y2="632" gradientUnits="userSpaceOnUse">
      <stop stop-color="#1B365D"/>
      <stop offset="1" stop-color="#0D1D31"/>
    </linearGradient>
    <filter id="tileShadow" x="124" y="120" width="776" height="776" filterUnits="userSpaceOnUse" color-interpolation-filters="sRGB">
      <feFlood flood-opacity="0" result="BackgroundImageFix"/>
      <feColorMatrix in="SourceAlpha" type="matrix" values="0 0 0 0 0 0 0 0 0 0 0 0 0 0 0 0 0 0 127 0" result="hardAlpha"/>
      <feOffset dy="10"/>
      <feGaussianBlur stdDeviation="20"/>
      <feComposite in2="hardAlpha" operator="out"/>
      <feColorMatrix type="matrix" values="0 0 0 0 0.0392 0 0 0 0 0.1216 0 0 0 0 0.2078 0 0 0 0.26 0"/>
      <feBlend mode="normal" in2="BackgroundImageFix" result="effect1_dropShadow_1_1"/>
      <feBlend mode="normal" in="SourceGraphic" in2="effect1_dropShadow_1_1" result="shape"/>
    </filter>
  </defs>

  <rect width="1024" height="1024" fill="url(#bg)"/>

  <g filter="url(#tileShadow)">
    <rect x="164" y="154" width="696" height="696" rx="144" fill="url(#tile)"/>
  </g>

  <rect x="320" y="246" width="386" height="386" rx="92" fill="url(#logoA)"/>
  <rect x="320" y="412" width="386" height="220" rx="82" fill="url(#logoB)"/>
  <rect x="446" y="246" width="260" height="145" rx="74" fill="#2F73F6"/>
  <rect x="446" y="405" width="260" height="227" rx="70" fill="#111F3A"/>
  <path d="M504 246L334 416L504 586" stroke="#F5F9FF" stroke-width="34" stroke-linecap="round" stroke-linejoin="round"/>
  <path d="M518 246L392 372C380 384 380 404 392 416L434 458" stroke="#DEEAF9" stroke-width="18" stroke-linecap="round" stroke-linejoin="round"/>

  <text x="512" y="772" text-anchor="middle" fill="#173A63" font-size="80" font-weight="600" letter-spacing="1.2" font-family="Poppins, Montserrat, Avenir Next, sans-serif">
    IMPULSA360
  </text>
  <circle cx="790" cy="704" r="11" fill="#FF8A00"/>
</svg>
