<svg xmlns="http://www.w3.org/2000/svg" width="1024" height="1024" viewBox="0 0 1024 1024" fill="none">
  <defs>
    <linearGradient id="bg" x1="0" y1="0" x2="1024" y2="1024" gradientUnits="userSpaceOnUse">
      <stop stop-color="#06111E"/>
      <stop offset="1" stop-color="#0D253E"/>
    </linearGradient>
    <linearGradient id="coreA" x1="232" y1="182" x2="792" y2="742" gradientUnits="userSpaceOnUse">
      <stop stop-color="#2E77FF"/>
      <stop offset="1" stop-color="#1A4FD0"/>
    </linearGradient>
    <linearGradient id="coreB" x1="232" y1="420" x2="792" y2="742" gradientUnits="userSpaceOnUse">
      <stop stop-color="#163157"/>
      <stop offset="1" stop-color="#0A1A2E"/>
    </linearGradient>
    <linearGradient id="glow" x1="232" y1="182" x2="792" y2="182" gradientUnits="userSpaceOnUse">
      <stop stop-color="#FFAA42" stop-opacity="0.95"/>
      <stop offset="1" stop-color="#FF8A00" stop-opacity="0"/>
    </linearGradient>
    <filter id="shadow" x="178" y="132" width="668" height="668" filterUnits="userSpaceOnUse" color-interpolation-filters="sRGB">
      <feFlood flood-opacity="0" result="BackgroundImageFix"/>
      <feColorMatrix in="SourceAlpha" type="matrix" values="0 0 0 0 0 0 0 0 0 0 0 0 0 0 0 0 0 0 127 0" result="hardAlpha"/>
      <feOffset dy="10"/>
      <feGaussianBlur stdDeviation="18"/>
      <feComposite in2="hardAlpha" operator="out"/>
      <feColorMatrix type="matrix" values="0 0 0 0 0.0118 0 0 0 0 0.0588 0 0 0 0 0.1216 0 0 0 0.45 0"/>
      <feBlend mode="normal" in2="BackgroundImageFix" result="effect1_dropShadow_1_1"/>
      <feBlend mode="normal" in="SourceGraphic" in2="effect1_dropShadow_1_1" result="shape"/>
    </filter>
  </defs>

  <rect width="1024" height="1024" fill="url(#bg)"/>
  <circle cx="126" cy="126" r="220" fill="rgba(46,119,255,0.20)"/>
  <circle cx="936" cy="930" r="240" fill="rgba(255,138,0,0.12)"/>

  <g filter="url(#shadow)">
    <rect x="232" y="182" width="560" height="560" rx="132" fill="url(#coreA)"/>
    <rect x="232" y="430" width="560" height="312" rx="110" fill="url(#coreB)"/>

    <rect x="414" y="182" width="378" height="210" rx="106" fill="#2F73F6"/>
    <rect x="414" y="412" width="378" height="330" rx="100" fill="#111F3A"/>

    <path d="M498 182L250 430L498 678" stroke="#F5F9FF" stroke-width="44" stroke-linecap="round" stroke-linejoin="round"/>
    <path d="M518 182L336 364C318 382 318 410 336 428L396 488" stroke="#DCE9F8" stroke-width="24" stroke-linecap="round" stroke-linejoin="round"/>
  </g>

  <rect x="232" y="182" width="560" height="560" rx="132" fill="url(#glow)" opacity="0.38"/>
</svg>
