<svg xmlns="http://www.w3.org/2000/svg" width="1242" height="2688" viewBox="0 0 1242 2688" fill="none">
  <defs>
    <linearGradient id="bg" x1="0" y1="0" x2="1242" y2="2688" gradientUnits="userSpaceOnUse">
      <stop stop-color="#050E19"/>
      <stop offset="1" stop-color="#0D253E"/>
    </linearGradient>
    <linearGradient id="orbA" x1="120" y1="180" x2="620" y2="680" gradientUnits="userSpaceOnUse">
      <stop stop-color="#2E77FF" stop-opacity="0.34"/>
      <stop offset="1" stop-color="#2E77FF" stop-opacity="0"/>
    </linearGradient>
    <linearGradient id="orbB" x1="620" y1="1900" x2="1220" y2="2500" gradientUnits="userSpaceOnUse">
      <stop stop-color="#FF8A00" stop-opacity="0.2"/>
      <stop offset="1" stop-color="#FF8A00" stop-opacity="0"/>
    </linearGradient>
    <linearGradient id="panel" x1="181" y1="886" x2="1061" y2="1802" gradientUnits="userSpaceOnUse">
      <stop stop-color="rgba(255,255,255,0.96)"/>
      <stop offset="1" stop-color="rgba(244,248,253,0.95)"/>
    </linearGradient>
    <linearGradient id="logoA" x1="362" y1="1060" x2="881" y2="1579" gradientUnits="userSpaceOnUse">
      <stop stop-color="#2E77FF"/>
      <stop offset="1" stop-color="#1A4FD0"/>
    </linearGradient>
    <linearGradient id="logoB" x1="362" y1="1280" x2="881" y2="1579" gradientUnits="userSpaceOnUse">
      <stop stop-color="#163157"/>
      <stop offset="1" stop-color="#0A1A2E"/>
    </linearGradient>
    <filter id="shadow" x="121" y="840" width="1000" height="1090" filterUnits="userSpaceOnUse" color-interpolation-filters="sRGB">
      <feFlood flood-opacity="0" result="BackgroundImageFix"/>
      <feColorMatrix in="SourceAlpha" type="matrix" values="0 0 0 0 0 0 0 0 0 0 0 0 0 0 0 0 0 0 127 0" result="hardAlpha"/>
      <feOffset dy="10"/>
      <feGaussianBlur stdDeviation="30"/>
      <feComposite in2="hardAlpha" operator="out"/>
      <feColorMatrix type="matrix" values="0 0 0 0 0.0118 0 0 0 0 0.0588 0 0 0 0 0.1216 0 0 0 0.32 0"/>
      <feBlend mode="normal" in2="BackgroundImageFix" result="effect1_dropShadow_1_1"/>
      <feBlend mode="normal" in="SourceGraphic" in2="effect1_dropShadow_1_1" result="shape"/>
    </filter>
  </defs>

  <rect width="1242" height="2688" fill="url(#bg)"/>
  <circle cx="20" cy="60" r="420" fill="url(#orbA)"/>
  <circle cx="1180" cy="2520" r="420" fill="url(#orbB)"/>
  <circle cx="1080" cy="270" r="220" fill="rgba(255,255,255,0.06)"/>
  <rect width="1242" height="2688" fill="rgba(6,13,22,0.26)"/>

  <g filter="url(#shadow)">
    <rect x="181" y="886" width="880" height="974" rx="112" fill="url(#panel)"/>
  </g>

  <rect x="362" y="1060" width="519" height="519" rx="122" fill="url(#logoA)"/>
  <rect x="362" y="1288" width="519" height="291" rx="102" fill="url(#logoB)"/>
  <rect x="530" y="1060" width="351" height="194" rx="98" fill="#2F73F6"/>
  <rect x="530" y="1272" width="351" height="307" rx="92" fill="#111F3A"/>
  <path d="M606 1060L378 1288L606 1516" stroke="#F5F9FF" stroke-width="40" stroke-linecap="round" stroke-linejoin="round"/>
  <path d="M620 1060L450 1230C434 1246 434 1268 450 1284L508 1342" stroke="#DDEAF8" stroke-width="22" stroke-linecap="round" stroke-linejoin="round"/>

  <text x="621" y="1714" text-anchor="middle" fill="#173A63" font-size="110" font-weight="600" letter-spacing="2.2" font-family="Poppins, Montserrat, Avenir Next, sans-serif">
    IMPULSA360
  </text>
  <circle cx="989" cy="1618" r="13" fill="#FF8A00"/>

  <text x="621" y="1786" text-anchor="middle" fill="#4E6781" font-size="36" font-weight="500" font-family="Poppins, Montserrat, Avenir Next, sans-serif">
    Plataforma de activaciones
  </text>
</svg>
